<?xml version="1.0" encoding="utf-8"?>
<!-- Generator: Adobe Illustrator 19.0.0, SVG Export Plug-In . SVG Version: 6.00 Build 0)  -->
<svg version="1.1" id="Layer_1" xmlns="http://www.w3.org/2000/svg" xmlns:xlink="http://www.w3.org/1999/xlink" x="0px" y="0px"
	 viewBox="819 -400 1889 944" style="enable-background:new 819 -400 1889 944;" xml:space="preserve">
<g transform="translate(0.000000,944.000000) scale(0.100000,-0.100000)">
	<path d="M14786,13229c-150-52-227-154-227-302c0-142,71-213,281-282c143-47,180-73,180-128c0-116-186-147-300-49l-41,34l-62-68
		c-91-99-93-101-71-125c31-34,155-88,232-100c86-14,201-1,275,30c66,28,140,101,168,164c26,60,31,169,11,229c-16,45-78,110-129,137
		c-21,10-88,35-150,55c-125,41-163,68-163,116c0,17,5,40,10,51c37,68,201,71,280,4c13-11,26-1,85,64c39,43,70,83,70,91
		c0,18-93,69-157,86C14998,13257,14857,13254,14786,13229z"/>
	<path d="M8192,13213c3-10,70-235,148-500l144-483h97h97l45,143c25,78,74,231,108,340c35,108,66,192,70,185s53-160,110-340l104-328
		h101h101l145,498l145,497l-110,3c-60,1-111,1-113-1s-41-148-86-325s-85-317-89-310c-3,7-50,154-104,326l-99,313l-104-3l-105-3
		l-101-312c-55-172-104-309-107-305c-4,4-40,144-82,312l-75,305l-122,3C8197,13230,8188,13229,8192,13213z"/>
	<path d="M11717,13223c-4-3-7-228-7-500v-493h355h355v100v100h-240h-240v100v100h215h215v105v105h-215h-215v90v90l228,2l227,3l3,103
		l3,102h-339C11876,13230,11720,13227,11717,13223z"/>
	<path d="M17320,13130v-100h140h140v-400v-400h115h115v400v400h140h140v100v100h-395h-395V13130z"/>
	<path d="M20230,12730v-500h355h355v100v100l-242,2l-243,3l-3,97l-3,98l218,2l218,3l3,103l3,102h-221h-220v90v90h230h230v105v105
		h-340h-340V12730z"/>
	<path d="M23110,12730v-500h115h115v201v200l52-3l52-3l102-195l102-195l132-3c104-2,131,0,127,10c-2,7-57,100-121,206
		s-116,195-116,197s15,9,34,15c99,32,165,124,174,241c6,86-16,162-64,217c-78,92-163,112-476,112h-228V12730z M23592,13020
		c68-33,73-134,9-177c-30-21-46-23-147-23h-114v111v111l113-4C23516,13035,23577,13028,23592,13020z"/>
	<path d="M26030,12730v-500h110h110v352c0,193,3,348,8,344c4-4,102-161,217-349l210-342l148-3l147-3v501v500h-110h-110l-2-346
		l-3-346l-210,343l-210,344l-152,3l-153,3V12730z"/>
	<path d="M11182,10789c-177-16-366-81-510-176c-122-81-252-224-329-363c-106-191-155-444-133-686c38-400,238-712,565-881
		c160-81,309-115,515-116c161-1,249,10,372,49c175,55,295,129,428,263c197,199,296,443,307,756c15,415-156,770-469,978
		c-96,64-234,125-343,151c-57,13-286,39-305,35C11277,10798,11233,10794,11182,10789z M11485,10595c443-78,740-482,712-970
		c-31-529-383-875-889-875c-273,0-459,72-634,245c-181,179-264,393-265,680c0,238,53,417,176,590c122,172,329,297,552,335
		C11218,10613,11393,10611,11485,10595z"/>
	<path d="M26290,10789c-280-32-495-197-555-425c-19-71-21-242-4-311c31-123,98-223,202-297c84-60,159-93,395-172
		c304-103,392-156,449-273c25-49,28-67,28-152c0-90-2-99-38-171c-76-154-226-238-428-238c-119,0-181,13-275,59
		c-77,39-140,94-199,174l-20,28l-92-62c-107-71-107-65-12-160c107-107,204-158,379-201c120-30,323-30,433,0c284,78,457,296,457,577
		c0,189-69,333-207,431c-87,63-183,104-378,164c-287,87-423,168-478,287c-19,41-22,66-22,163c0,105,2,120,28,171
		c69,141,235,229,432,229c155,0,256-40,356-140l67-66l81,59c45,32,81,63,81,69s-31,41-69,78C26759,10749,26530,10817,26290,10789z"
		/>
	<path d="M8210,9680V8620h100h100v500v500h500h500v95v95h-500h-500v375v375h535h535v90v90h-635h-635V9680z"/>
	<path d="M13270,10023c0-596,3-734,15-812c47-286,174-470,398-577c105-50,198-67,357-68c202-1,326,33,457,122
		c182,125,281,313,313,597c6,52,10,379,10,773v682h-99h-99l-5-702c-3-431-9-728-16-768c-17-101-60-225-101-288
		c-63-99-162-179-254-208c-66-21-263-29-341-15c-177,33-315,159-381,350c-49,141-54,220-54,954v677h-100h-100V10023z"/>
	<path d="M15820,9680V8620h100h100v928c1,877,2,926,18,906c9-11,301-428,647-927l630-907h133h132v1060v1060h-105h-105l-2-924l-3-924
		l-641,922l-640,921l-132,3l-132,3V9680z"/>
	<path d="M18590,9680V8618l458,5c418,4,464,6,542,25c404,97,653,331,764,715c78,268,51,565-73,822c-136,281-351,443-701,527
		c-78,19-125,21-537,25l-453,5V9680z M19357,10549c300-33,520-139,666-322c95-118,149-257,168-434c31-294-48-549-227-727
		c-116-115-250-185-453-233c-98-23-129-26-413-30l-308-5v881v881h235C19155,10560,19304,10555,19357,10549z"/>
	<path d="M21300,9680V8620h675h675v90v90h-570h-570v410v410h515h516l-3,93l-3,92l-512,3l-513,2v375v375h550h550v90v90h-655h-655
		V9680z"/>
	<path d="M23550,9681V8620h100h100v500v500h184h183l294-497l295-498l112-3c62-1,112,0,112,4s-133,226-294,493
		c-162,268-298,494-301,502c-5,13,11,19,81,34c179,37,321,135,391,270c40,77,53,143,53,263c0,113-15,176-61,263
		c-59,109-151,186-275,229c-142,50-169,52-581,57l-393,5V9681z M24370,10536c151-48,236-123,271-239c55-180-15-348-181-432
		c-91-46-160-55-447-55h-263v376v376l283-4C24265,10554,24325,10550,24370,10536z"/>
	<path d="M20581,6609c-531-60-927-440-1016-977c-24-141-17-396,14-529c109-476,457-807,930-887c119-20,328-21,448-1
		c378,61,676,280,841,617c91,184,126,346,126,578c0,161-11,243-49,376c-72,248-235,480-436,621c-129,90-319,166-482,193
		C20864,6615,20675,6620,20581,6609z M20965,6395c92-19,225-73,305-123c313-196,482-594,430-1008c-50-396-276-694-618-810
		c-136-46-220-57-397-51c-172,6-270,29-404,96c-353,178-549,566-511,1010c37,424,266,733,640,860C20559,6421,20791,6431,20965,6395z
		"/>
	<path d="M8232,5408l3-1153l107-3l108-3l2,1011l3,1011l701-1008l701-1008h139h139v1150v1150l-107,3l-108,3V5555c0-554-4-1004-8-1001
		c-5,3-321,455-703,1005l-694,1000l-143,1h-142L8232,5408z"/>
	<path d="M11282,5408l3-1153l728-3l727-2v100v100h-620h-620v450v450h560h561l-3,98l-3,97l-557,3l-558,2v405v405h595h595v100v100
		h-705h-705L11282,5408z"/>
	<path d="M13450,6460v-100h395h395V5305V4250h105h105v1055v1055h395h395v100v100h-895h-895V6460z"/>
	<path d="M15814,6543c3-10,152-522,331-1138s328-1128,331-1137c5-16,20-18,135-18c125,0,130,1,138,23c5,12,136,471,292,1020
		c155,548,285,997,288,997s134-451,290-1003c156-551,288-1010,293-1019c8-16,25-18,132-18c87,0,126,4,133,13c5,6,157,521,337,1142
		c181,622,331,1136,333,1143c4,9-22,12-109,12h-113l-285-1015c-157-558-288-1011-291-1007c-4,4-136,460-294,1015l-288,1007h-138
		h-138l-9-32c-88-317-567-1985-572-1991c-3-4-134,450-291,1008l-284,1015h-113C15819,6560,15809,6558,15814,6543z"/>
	<path d="M22922,5408l3-1153l108-3l107-3v551v550h198h199l324-547l324-548h120c75,0,119,4,118,10s-148,252-328,548
		c-180,297-324,541-322,543c2,3,50,16,105,29c149,36,223,75,312,165c84,84,123,153,146,258c16,80,18,196,3,278
		c-28,155-141,305-283,374c-169,84-298,100-781,100h-355L22922,5408z M23763,6345c218-38,350-169,364-361c13-172-65-304-224-380
		c-99-46-163-54-475-54h-288v405v405h273C23599,6359,23709,6355,23763,6345z"/>
	<path d="M25370,5405V4249l108,3l107,3l3,593c1,350,6,592,11,592s272-268,593-595l583-595h148c95,0,147,4,147,10s-271,286-602,622
		c-332,336-603,615-603,621c0,7,258,246,574,532l575,520l-148,3l-147,3l-550-501c-302-275-556-503-564-506c-13-5-15,57-15,500v506
		h-110h-110V5405z"/>
</g>
</svg>
